<svg width="32" height="32" viewBox="0 0 32 32" fill="none" xmlns="http://www.w3.org/2000/svg">
  <defs>
    <linearGradient id="faviconGradient" x1="0%" y1="0%" x2="100%" y2="100%">
      <stop offset="0%" style="stop-color:#3b82f6;stop-opacity:1" />
      <stop offset="50%" style="stop-color:#8b5cf6;stop-opacity:1" />
      <stop offset="100%" style="stop-color:#ec4899;stop-opacity:1" />
    </linearGradient>
  </defs>

  <!-- Background circle -->
  <circle cx="16" cy="16" r="15" fill="url(#faviconGradient)"/>

  <!-- Turbo fan blades (outer) -->
  <path d="M16 4 L20 8 L16 10 Z" fill="white" opacity="0.3"/>
  <path d="M28 16 L24 20 L22 16 Z" fill="white" opacity="0.3"/>
  <path d="M16 28 L12 24 L16 22 Z" fill="white" opacity="0.3"/>
  <path d="M4 16 L8 12 L10 16 Z" fill="white" opacity="0.3"/>

  <!-- Diagonal blades -->
  <path d="M24 8 L26 10 L22 14 L20 12 Z" fill="white" opacity="0.2"/>
  <path d="M24 24 L22 26 L18 22 L20 20 Z" fill="white" opacity="0.2"/>
  <path d="M8 24 L10 26 L14 22 L12 20 Z" fill="white" opacity="0.2"/>
  <path d="M8 8 L12 10 L10 14 L6 12 Z" fill="white" opacity="0.2"/>

  <!-- Center hub -->
  <circle cx="16" cy="16" r="7" fill="white" opacity="0.9"/>

  <!-- Lightning bolt -->
  <path d="M18 11 L14.5 16 L16.5 16 L14 21 L19.5 15 L17 15 Z" fill="url(#faviconGradient)"/>

  <!-- Circuit dots -->
  <circle cx="16" cy="9" r="0.8" fill="white" opacity="0.5"/>
  <circle cx="23" cy="16" r="0.8" fill="white" opacity="0.5"/>
  <circle cx="16" cy="23" r="0.8" fill="white" opacity="0.5"/>
  <circle cx="9" cy="16" r="0.8" fill="white" opacity="0.5"/>
</svg>
